<svg width="36" height="36" viewBox="0 0 36 36" fill="none" xmlns="http://www.w3.org/2000/svg">
<path d="M18.5823 29.1596H16.8435C15.619 29.1596 14.6238 30.1547 14.6238 31.3793V33.7803C14.6238 35.0048 15.619 36 16.8435 36H18.5823C19.8069 36 20.802 35.0048 20.802 33.7803V31.3793C20.802 30.1511 19.8069 29.1596 18.5823 29.1596ZM6.3221 10.5732L9.52959 10.9728C10.547 11.0986 11.5125 10.514 11.8788 9.55585C12.3412 8.34611 12.9849 7.39163 13.8099 6.69613C14.979 5.71205 16.4329 5.21632 18.1717 5.21632C19.9733 5.21632 21.4087 5.68986 22.4742 6.63323C23.5397 7.58031 24.0687 8.71236 24.0687 10.0405C24.0687 10.995 23.769 11.8681 23.1697 12.6597C22.7813 13.1629 21.5863 14.2209 19.5923 15.8376C17.5945 17.4543 16.2664 18.9119 15.6005 20.2067C14.9198 21.5312 14.683 22.9999 14.6239 24.4723C14.5721 25.7338 15.5783 26.7845 16.8436 26.7845H18.6563C19.8106 26.7845 20.7651 25.9003 20.8686 24.7535C20.9426 23.9285 21.0795 23.3033 21.2867 22.8778C21.6344 22.149 22.5334 21.1871 23.9762 19.9885C26.7693 17.6763 28.5895 15.8487 29.4441 14.5021C30.295 13.1592 30.7242 11.7349 30.7242 10.2292C30.7242 7.51002 29.5662 5.12383 27.2466 3.0743C24.9307 1.02477 21.8083 0 17.8868 0C14.1577 0 11.15 1.00997 8.85631 3.0336C6.90297 4.75758 5.71542 6.79971 5.29738 9.1563C5.16786 9.84441 5.63769 10.4881 6.3221 10.5732Z" fill="#FF792F"/>
</svg>
