<svg width="36" height="36" viewBox="0 0 36 36" fill="none" xmlns="http://www.w3.org/2000/svg">
<g clip-path="url(#clip0_1026_2659)">
<path d="M21.3355 7.27821V0.0710144H6.02218C5.19883 0.0710144 4.53134 0.738508 4.53134 1.56186V34.5092C4.53134 35.3325 5.19883 36 6.02218 36H29.8755C30.6988 36 31.3663 35.3325 31.3663 34.5092V10.0645H24.1218C22.5855 10.0645 21.3355 8.8146 21.3355 7.27821ZM15.3151 28.2487L12.1434 31.4205C11.9378 31.626 11.6684 31.7288 11.3991 31.7288C11.1298 31.7288 10.8603 31.6261 10.6548 31.4205L9.33811 30.1039C8.92703 29.6928 8.92703 29.0263 9.33811 28.6153C9.74911 28.2042 10.4156 28.2042 10.8267 28.6153L11.3991 29.1877L13.8266 26.7602C14.2376 26.3491 14.9041 26.3491 15.3152 26.7602C15.7262 27.1712 15.7262 27.8377 15.3151 28.2487ZM15.3151 21.2314L12.1434 24.4031C11.9378 24.6086 11.6684 24.7114 11.3991 24.7114C11.1298 24.7114 10.8603 24.6087 10.6548 24.4031L9.33811 23.0865C8.92703 22.6754 8.92703 22.009 9.33811 21.5979C9.74911 21.1868 10.4156 21.1868 10.8267 21.5979L11.3991 22.1703L13.8266 19.7428C14.2376 19.3318 14.9041 19.3318 15.3152 19.7428C15.7262 20.1538 15.7262 20.8203 15.3151 21.2314ZM15.3151 13.6781L12.1434 16.8498C11.9378 17.0553 11.6684 17.1581 11.3991 17.1581C11.1298 17.1581 10.8603 17.0554 10.6548 16.8498L9.33811 15.533C8.92703 15.122 8.92703 14.4555 9.33811 14.0444C9.74911 13.6334 10.4156 13.6334 10.8267 14.0444L11.3991 14.6168L13.8266 12.1895C14.2376 11.7784 14.9041 11.7784 15.3152 12.1895C15.7262 12.6005 15.7262 13.267 15.3151 13.6781ZM25.8153 30.1429H19.0786C18.4973 30.1429 18.026 29.6717 18.026 29.0903C18.026 28.509 18.4973 28.0377 19.0786 28.0377H25.8153C26.3966 28.0377 26.8679 28.509 26.8679 29.0903C26.8679 29.6717 26.3966 30.1429 25.8153 30.1429ZM18.026 22.073C18.026 21.4916 18.4973 21.0203 19.0786 21.0203H25.7852C26.3665 21.0203 26.8378 21.4916 26.8378 22.073C26.8378 22.6543 26.3665 23.1256 25.7852 23.1256H19.0786C18.4973 23.1256 18.026 22.6543 18.026 22.073ZM26.8378 15.0556C26.8378 15.6369 26.3666 16.1082 25.7852 16.1082H19.0787C18.4973 16.1082 18.026 15.6369 18.026 15.0556C18.026 14.4743 18.4973 14.003 19.0787 14.003H25.7852C26.3666 14.003 26.8378 14.4743 26.8378 15.0556Z" fill="#FF792F"/>
<path d="M23.4407 7.27822C23.4407 7.65379 23.7463 7.95932 24.1218 7.95932H31.4686L23.4407 0V7.27822Z" fill="#FF792F"/>
</g>
<defs>
<clipPath id="clip0_1026_2659">
<rect width="36" height="36" fill="white"/>
</clipPath>
</defs>
</svg>
