<svg width="36" height="36" viewBox="0 0 36 36" fill="none" xmlns="http://www.w3.org/2000/svg">
<g clip-path="url(#clip0_1026_2638)">
<path d="M33.9522 23.302C33.2116 22.7859 32.337 22.5953 31.5646 22.4275C31.4967 22.4124 31.4265 22.4108 31.3581 22.423C31.2896 22.4352 31.2242 22.4608 31.1657 22.4983C31.1072 22.5359 31.0567 22.5846 31.0171 22.6418C30.9775 22.699 30.9497 22.7634 30.9351 22.8314C30.9202 22.8993 30.9188 22.9695 30.931 23.038C30.9433 23.1065 30.9689 23.1719 31.0065 23.2304C31.0441 23.2889 31.0929 23.3395 31.15 23.3791C31.2072 23.4187 31.2716 23.4467 31.3396 23.4614C32.0474 23.616 32.7796 23.7759 33.3471 24.1708C33.7855 24.4763 34.2011 25.0623 34.0767 25.6283C33.8977 26.4415 32.7341 26.8025 32.0554 26.946C29.6688 27.4505 27.152 27.4277 24.7204 27.4076C23.3137 27.3955 21.8584 27.3833 20.4263 27.4701C19.3675 27.5347 18.261 27.6766 17.3457 28.2695C16.4012 28.882 15.641 30.1934 16.0931 31.4179C16.1804 31.654 16.3006 31.8573 16.4165 32.0543C16.5648 32.3068 16.6934 32.5244 16.7003 32.725C16.7088 32.9935 16.4801 33.2545 16.2492 33.3942C15.9327 33.5848 15.5261 33.6626 15.101 33.733C10.8604 34.4282 6.1396 34.5457 2.0536 34.0666C2.25371 33.03 2.62907 31.8992 3.19024 30.6333C4.07648 30.6132 5.05113 30.4973 6.10042 30.2818C9.16571 29.6677 12.2363 28.2912 14.9734 26.3006C15.974 25.5806 16.9534 24.8236 17.8851 24.0453C17.9698 23.9765 18.0016 23.86 17.9698 23.7542C17.9512 23.7037 17.9182 23.6597 17.875 23.6277C17.8317 23.5958 17.78 23.5771 17.7263 23.5742C16.8051 23.5424 15.524 23.3571 14.2163 22.7589C15.7092 22.7853 18.3616 22.6265 20.7122 21.52C20.7382 21.5092 20.7617 21.4929 20.781 21.4724C22.401 19.9318 23.9098 18.2906 25.2704 16.5965C25.3012 16.5583 25.3205 16.5122 25.3261 16.4635C25.3318 16.4147 25.3235 16.3654 25.3022 16.3212C25.2818 16.2763 25.2491 16.238 25.2078 16.2109C25.1666 16.1837 25.1186 16.1687 25.0692 16.1677C24.2222 16.1571 22.6816 16.0089 21.1145 15.2253C22.5439 15.1247 25.3445 14.8389 27.081 14.1295C27.1287 14.1136 27.1657 14.0818 27.1975 14.0395C28.9763 11.4983 30.4428 8.8671 31.5651 6.22004C31.5969 6.14592 31.5916 6.06122 31.5545 5.9871C31.5347 5.95327 31.5079 5.924 31.476 5.9012C31.4441 5.8784 31.4077 5.86257 31.3692 5.85475C30.4481 5.68533 29.5216 5.65886 28.8334 5.68004C29.9981 5.0871 31.131 4.89122 31.9516 4.83828C32.0021 4.8335 32.0503 4.81457 32.0906 4.78367C32.1308 4.75277 32.1616 4.71114 32.1792 4.66357C32.9045 2.71533 33.1375 1.54533 33.1428 1.49769C33.1555 1.43748 33.1465 1.37471 33.1175 1.32046C33.0884 1.26621 33.0411 1.22398 32.984 1.20122C32.8357 1.14298 29.2992 -0.238783 23.7828 1.33357C23.7298 1.34945 23.6875 1.37592 23.6557 1.41828C22.581 2.67298 21.8187 4.34063 21.3951 5.42592C21.3475 4.47298 21.4375 3.48828 21.6651 2.49828C21.6916 2.40298 21.6545 2.30239 21.5804 2.23886C21.5063 2.17533 21.4004 2.15945 21.3104 2.19651C19.3092 3.02769 17.3134 4.17122 15.3757 5.59533C15.3439 5.61651 15.3228 5.64828 15.3016 5.68004C14.3857 7.30004 14.1051 9.55533 14.0204 10.9159C13.6498 9.93122 13.4328 8.8671 13.3692 7.73945C13.3667 7.69046 13.3504 7.64316 13.3224 7.60293C13.2943 7.56269 13.2555 7.53113 13.2104 7.51181C13.1643 7.49225 13.1137 7.48585 13.0641 7.49333C13.0146 7.50081 12.9681 7.52186 12.9298 7.55416C11.781 8.55475 10.611 9.69828 9.4463 10.9477C9.43042 10.9636 9.41983 10.9795 9.40924 11.0006C8.48277 12.6206 8.20748 14.8971 8.12277 16.2577C7.83689 15.5006 7.64101 14.6906 7.53513 13.8436C7.53039 13.7921 7.51014 13.7433 7.47705 13.7036C7.44397 13.6639 7.3996 13.6352 7.34983 13.6212C7.24395 13.5947 7.13807 13.6265 7.06924 13.7059C5.7616 15.3206 4.45924 17.0942 3.19924 18.9947C1.96571 20.8371 1.18748 22.8383 0.938655 24.7759C0.663361 26.92 1.02336 28.4024 1.43101 29.3236C8.5516 13.9018 20.8551 9.34357 20.9769 9.30122C21.0422 9.27746 21.1116 9.26684 21.1811 9.26996C21.2505 9.27307 21.3187 9.28987 21.3817 9.31938C21.4446 9.34889 21.5011 9.39053 21.5479 9.44192C21.5948 9.49332 21.631 9.55344 21.6545 9.61887C21.6783 9.68421 21.6889 9.7536 21.6858 9.82305C21.6827 9.89251 21.6659 9.96067 21.6364 10.0236C21.6069 10.0866 21.5652 10.1431 21.5138 10.1899C21.4624 10.2367 21.4023 10.273 21.3369 10.2965C21.2151 10.3389 9.29277 14.7753 2.37336 29.8106C2.27807 30.0224 2.18807 30.2342 2.10865 30.4353L2.11713 30.4449C1.47865 31.9256 1.0853 33.2391 0.91642 34.4515C0.897114 34.5905 0.933846 34.7316 1.01853 34.8436C1.10322 34.9556 1.22893 35.0293 1.36801 35.0486H1.37171C3.22095 35.2938 5.20995 35.4155 7.2376 35.4155C9.93018 35.4155 12.6889 35.2011 15.2719 34.7776C15.7818 34.6945 16.3191 34.5886 16.7972 34.3C17.4102 33.9284 17.7787 33.3116 17.7581 32.6906C17.7427 32.2195 17.5225 31.8462 17.3292 31.5169C17.2318 31.3528 17.1413 31.1982 17.0868 31.051C16.8342 30.3681 17.3134 29.5528 17.9217 29.1584C18.6671 28.675 19.6385 28.5792 20.4909 28.5268C21.8859 28.4421 23.3222 28.4543 24.7114 28.4665C27.2007 28.4876 29.7752 28.5099 32.2745 27.982C33.8993 27.639 34.8798 26.9036 35.1106 25.8554C35.3414 24.8093 34.695 23.8193 33.9522 23.302Z" fill="#FF792F"/>
</g>
<defs>
<clipPath id="clip0_1026_2638">
<rect width="36" height="36" fill="white"/>
</clipPath>
</defs>
</svg>
