<svg width="36" height="36" viewBox="0 0 36 36" fill="none" xmlns="http://www.w3.org/2000/svg">
<g clip-path="url(#clip0_1026_2647)">
<path d="M18 16.5C19.6569 16.5 21 15.1569 21 13.5C21 11.8431 19.6569 10.5 18 10.5C16.3431 10.5 15 11.8431 15 13.5C15 15.1569 16.3431 16.5 18 16.5Z" fill="#FF792F"/>
<path d="M19.875 18H16.125C15.0312 18.0008 13.9825 18.4356 13.2091 19.2091C12.4356 19.9825 12.0008 21.0312 12 22.125V22.875C12 23.496 12.504 24 13.125 24H22.875C23.1734 24 23.4595 23.8815 23.6705 23.6705C23.8815 23.4595 24 23.1734 24 22.875V22.125C23.9992 21.0312 23.5644 19.9825 22.7909 19.2091C22.0175 18.4356 20.9688 18.0008 19.875 18Z" fill="#FF792F"/>
<path d="M18 33.375C9.522 33.375 2.625 26.478 2.625 18C2.625 9.522 9.522 2.625 18 2.625C26.478 2.625 33.375 9.522 33.375 18C33.375 26.478 26.478 33.375 18 33.375ZM18 5.625C11.1765 5.625 5.625 11.1765 5.625 18C5.625 24.8235 11.1765 30.375 18 30.375C24.8235 30.375 30.375 24.8235 30.375 18C30.375 11.1765 24.8235 5.625 18 5.625Z" fill="#FF792F"/>
<path d="M18 8.25C17.6022 8.25 17.2206 8.09196 16.9393 7.81066C16.658 7.52936 16.5 7.14782 16.5 6.75V1.5C16.5 1.10218 16.658 0.720644 16.9393 0.43934C17.2206 0.158035 17.6022 0 18 0C18.3978 0 18.7794 0.158035 19.0607 0.43934C19.342 0.720644 19.5 1.10218 19.5 1.5V6.75C19.5 7.14782 19.342 7.52936 19.0607 7.81066C18.7794 8.09196 18.3978 8.25 18 8.25ZM34.5 19.5H29.25C28.8522 19.5 28.4706 19.342 28.1893 19.0607C27.908 18.7794 27.75 18.3978 27.75 18C27.75 17.6022 27.908 17.2206 28.1893 16.9393C28.4706 16.658 28.8522 16.5 29.25 16.5H34.5C34.8978 16.5 35.2794 16.658 35.5607 16.9393C35.842 17.2206 36 17.6022 36 18C36 18.3978 35.842 18.7794 35.5607 19.0607C35.2794 19.342 34.8978 19.5 34.5 19.5ZM18 36C17.6022 36 17.2206 35.842 16.9393 35.5607C16.658 35.2794 16.5 34.8978 16.5 34.5V29.25C16.5 28.8522 16.658 28.4706 16.9393 28.1893C17.2206 27.908 17.6022 27.75 18 27.75C18.3978 27.75 18.7794 27.908 19.0607 28.1893C19.342 28.4706 19.5 28.8522 19.5 29.25V34.5C19.5 34.8978 19.342 35.2794 19.0607 35.5607C18.7794 35.842 18.3978 36 18 36ZM6.75 19.5H1.5C1.10218 19.5 0.720644 19.342 0.43934 19.0607C0.158035 18.7794 0 18.3978 0 18C0 17.6022 0.158035 17.2206 0.43934 16.9393C0.720644 16.658 1.10218 16.5 1.5 16.5H6.75C7.14782 16.5 7.52936 16.658 7.81066 16.9393C8.09196 17.2206 8.25 17.6022 8.25 18C8.25 18.3978 8.09196 18.7794 7.81066 19.0607C7.52936 19.342 7.14782 19.5 6.75 19.5Z" fill="#FF792F"/>
</g>
<defs>
<clipPath id="clip0_1026_2647">
<rect width="36" height="36" fill="white"/>
</clipPath>
</defs>
</svg>
